PathFileType	4	(X/Y/Z)	D:\TRACE\spotREDO_2-26-24\spot_justArm_Motion_2_1-platform.trc
DataRate	CameraRate	NumFrames	NumMarkers	Units	OrigDataRate	OrigDataStartFrame	OrigNumFrames
100.00	100.00	      72	5	mm	100.00	876	      7000
Frame#	Time	Left_Front			Right_Front			Left_Aft			Right_Aft			Post			
		X1	Y1	Z1	X2	Y2	Z2	X3	Y3	Z3	X4	Y4	Z4	X5	Y5	Z5	

876	8.750	-742.98169	-28.97475	-581.58380	671.68536	-17.04851	-497.16116	-814.44147	30.34169	636.20880	754.94263	36.22199	640.51282	-33.47890	580.68170	-1013.76953	
877	8.760	-743.57202	-29.80904	-581.76001	671.44855	-17.92518	-497.29883	-814.74890	31.17604	635.92523	754.31665	37.35298	640.17487	-33.53416	578.60162	-1015.25372	
878	8.770	-743.97870	-31.16320	-581.85461	670.81384	-18.96548	-497.52484	-815.58704	32.61761	635.51752	753.65015	38.11952	639.53802	-34.57430	576.93665	-1016.34827	
879	8.780	-744.44757	-32.20258	-582.18103	670.29413	-19.77273	-497.74872	-815.77631	33.58772	635.45166	753.51007	39.79626	639.57849	-34.95331	575.04028	-1017.81036	
880	8.790	-744.98840	-33.12499	-582.43695	669.85089	-20.79594	-497.95523	-816.43201	34.80867	635.02026	752.83026	40.66274	639.18811	-35.19478	573.22137	-1019.08478	
881	8.800	-745.31885	-34.48049	-582.47351	669.26526	-21.77005	-498.31580	-816.84540	35.63596	634.65582	752.24060	41.83865	638.87128	-35.80112	571.47266	-1020.22119	
882	8.810	-745.75647	-35.23640	-582.87469	669.02209	-22.65591	-498.48486	-817.25983	36.75819	634.21979	752.43774	42.61385	638.38409	-36.18571	569.66064	-1021.69495	
883	8.820	-746.18958	-36.26487	-583.02515	668.64191	-23.54864	-498.88095	-817.52637	37.75291	633.95398	751.80188	43.79256	637.81775	-36.47785	567.83960	-1022.77637	
884	8.830	-746.25555	-37.47043	-583.23193	668.43408	-24.40639	-498.97784	-817.58099	38.65088	633.61298	751.33636	44.67811	637.93115	-36.63616	565.90320	-1023.99701	
885	8.840	-746.70367	-38.27818	-583.44073	668.26312	-25.20124	-498.98331	-818.17792	39.94389	633.03888	750.93982	45.90554	637.52313	-37.01706	564.38428	-1025.11475	
886	8.850	-746.71436	-39.40857	-583.67590	667.96973	-26.25345	-499.30609	-818.23376	40.73964	632.83014	751.16089	46.65456	637.19153	-37.47688	562.72028	-1026.54883	
887	8.860	-747.01886	-40.32178	-583.83783	667.79730	-27.01718	-499.53833	-818.37695	41.84768	632.50281	750.76166	47.78579	636.87701	-36.75139	560.99652	-1027.12793	
888	8.870	-747.17078	-41.20383	-584.12000	667.72363	-27.49018	-499.81500	-818.39063	42.69527	632.26526	751.21313	49.15833	636.84766	-37.31627	559.28534	-1028.71313	
889	8.880	-746.87152	-42.29781	-584.26062	667.87189	-28.73207	-499.71387	-818.40326	43.49355	632.09344	750.50909	49.63102	635.98682	-37.22859	557.58209	-1029.94690	
890	8.890	-747.21930	-43.16214	-584.31781	667.76477	-29.58257	-500.03406	-818.48767	44.64229	631.62842	750.76251	50.59912	635.94513	-37.53887	556.11890	-1030.90356	
891	8.900	-747.33014	-43.82449	-584.56702	667.86493	-30.15492	-500.14969	-818.44940	45.28804	631.39252	750.41840	51.58548	635.67780	-37.25451	554.59869	-1032.05212	
892	8.910	-746.97375	-44.86261	-584.69452	667.70795	-30.65055	-500.45221	-818.57178	46.30080	631.17999	750.76447	52.58446	635.44226	-37.33820	552.91516	-1032.92639	
893	8.920	-747.05963	-45.73980	-584.66571	667.88953	-31.67548	-500.75391	-818.44177	47.16470	630.73962	750.76031	53.31808	635.17749	-37.46471	551.49976	-1034.06531	
894	8.930	-747.38867	-46.53172	-584.83746	667.87207	-32.52760	-500.68637	-818.56281	47.83818	630.42078	750.59589	53.82529	634.55542	-37.09423	550.01703	-1035.08972	
895	8.940	-747.13550	-47.45148	-585.00952	667.89185	-33.13639	-501.00351	-818.55304	48.79615	629.97559	750.90900	54.81871	634.40643	-37.36928	548.42914	-1036.03174	
896	8.950	-746.96680	-48.14571	-585.15045	668.14252	-33.79868	-501.05490	-818.15076	49.66706	629.99835	750.97607	55.64793	634.33533	-36.95955	547.15668	-1037.09546	
897	8.960	-746.61505	-48.78741	-585.38959	668.52466	-34.35441	-501.23849	-817.76086	50.36645	629.78998	751.28644	56.57991	634.00549	-36.21291	545.76038	-1037.47705	
898	8.970	-746.13049	-49.83613	-585.49152	668.83545	-35.08590	-501.44043	-817.49078	51.09415	629.58624	752.00366	57.25491	633.83649	-35.79810	544.45905	-1038.38013	
899	8.980	-745.92133	-50.39496	-585.56940	669.15094	-35.68695	-501.70044	-817.21405	51.91422	629.30090	752.09241	58.08177	633.49976	-35.66952	543.16907	-1039.60962	
900	8.990	-745.77020	-50.85920	-585.67993	669.60468	-36.54186	-501.72458	-816.79266	52.70742	628.94409	752.39612	58.63062	633.21851	-35.23616	541.90771	-1040.00342	
901	9.000	-745.08832	-51.85512	-585.82721	669.96075	-36.98012	-501.76419	-816.47699	53.06752	628.72906	752.76447	59.56900	633.07281	-35.01075	540.61115	-1041.05469	
902	9.010	-744.84070	-52.41362	-585.84381	670.37604	-37.52832	-501.91397	-816.08722	53.79156	628.42633	753.23236	59.97046	632.45203	-34.75431	539.73895	-1041.95435	
903	9.020	-744.42322	-53.00872	-585.97400	670.64484	-38.05193	-501.98306	-815.67047	54.66367	628.16913	753.32343	60.65273	632.58887	-34.44602	538.31415	-1042.64954	
904	9.030	-744.08240	-53.41992	-586.25348	671.05859	-38.41247	-502.15396	-815.46851	55.13014	627.83313	754.03113	61.18201	632.39136	-33.78053	537.42212	-1043.35095	
905	9.040	-743.63824	-54.14949	-586.36005	671.54260	-39.10013	-502.22601	-814.79767	55.65893	627.82013	754.75519	61.75740	632.04199	-33.39415	536.48401	-1043.84424	
906	9.050	-743.25513	-54.70190	-586.33539	672.02783	-39.48456	-502.38022	-814.33600	56.12296	627.71106	754.83270	62.44214	632.10968	-33.13819	535.41089	-1044.63672	
907	9.060	-743.00983	-55.04432	-586.27966	672.45758	-39.74996	-502.63409	-813.84460	56.55730	627.48218	755.16388	62.87230	631.89984	-32.52704	534.60516	-1045.45654	
908	9.070	-742.46228	-55.54967	-586.44104	672.92578	-40.40670	-502.55148	-813.52808	57.31508	627.30670	755.73383	63.37348	631.64093	-31.95106	533.83234	-1045.81165	
909	9.080	-741.75562	-56.28989	-586.56793	673.49255	-40.80048	-502.49109	-813.01086	57.73822	627.26422	756.49701	63.98800	631.59241	-31.57077	533.18671	-1046.33801	
910	9.090	-741.15753	-56.71021	-586.67444	673.91479	-41.17860	-502.55444	-812.42133	57.94958	627.01489	756.95819	64.07352	631.30688	-30.84192	532.21179	-1046.82068	
911	9.100	-740.76416	-56.93174	-586.71344	674.46088	-41.37254	-502.71448	-811.95709	58.27774	626.92310	757.39825	64.55963	631.38623	-30.59400	531.70215	-1046.97900	
912	9.110	-740.37109	-56.98079	-586.70044	675.04071	-41.73552	-502.73819	-811.34100	58.60242	626.78833	757.80695	65.05120	631.17859	-30.18111	531.23724	-1047.19226	
913	9.120	-739.63678	-57.16866	-586.83130	675.45941	-41.95939	-502.89169	-810.75549	59.04854	626.65015	758.47882	65.45966	631.03333	-28.90047	530.55951	-1047.38904	
914	9.130	-738.96002	-57.62813	-586.97754	676.16174	-42.05928	-502.96371	-810.07178	59.24879	626.66931	759.20874	65.56885	630.91339	-28.59799	530.01062	-1048.00488	
915	9.140	-738.21271	-58.08409	-587.04126	676.85535	-42.24647	-503.10132	-809.67493	59.47887	626.70117	760.01062	65.76559	630.65552	-28.30472	529.74341	-1048.13904	
916	9.150	-737.54346	-58.34454	-586.91357	677.58160	-42.58538	-502.93561	-809.01678	59.75740	626.54999	760.35040	66.03598	630.82007	-27.89400	529.46991	-1048.28381	
917	9.160	-737.01385	-58.55930	-586.95123	678.10986	-42.63339	-502.98682	-808.33087	59.97734	626.42004	760.95013	66.24329	630.75952	-27.10379	529.02722	-1048.69934	
918	9.170	-736.77985	-58.52852	-586.94269	678.54901	-42.66338	-503.21182	-807.70190	60.12561	626.38184	761.80872	66.52194	630.72565	-26.03555	528.52429	-1049.00769	
919	9.180	-735.88208	-58.76097	-586.99414	679.30554	-42.68386	-503.24884	-807.09784	60.41587	626.23291	762.55237	66.76668	630.62695	-25.48230	528.30750	-1049.02576	
920	9.190	-734.77258	-58.79125	-586.83484	680.23486	-42.90860	-503.17755	-806.48987	60.66815	626.13251	763.13812	66.87672	630.68488	-24.67993	528.18970	-1049.23718	
921	9.200	-734.53864	-58.78423	-587.10736	680.88892	-43.20647	-503.00708	-805.63300	60.79218	626.11694	763.80743	66.75943	630.62170	-24.03865	528.02570	-1049.45056	
922	9.210	-733.61151	-58.95616	-587.10144	681.47028	-43.19045	-503.04056	-805.06854	60.78131	626.03540	764.44153	66.72115	630.44489	-23.31595	527.91205	-1049.73828	
923	9.220	-732.90778	-59.02875	-587.10382	682.12885	-43.10749	-503.10815	-804.35614	60.94764	626.05170	765.16461	66.58243	630.37683	-22.45516	527.93872	-1049.55359	
924	9.230	-732.25378	-59.22428	-587.14923	682.95581	-43.15905	-503.22870	-803.72382	60.90921	626.01868	765.95392	66.89758	630.57477	-21.68262	527.92920	-1049.52063	
925	9.240	-731.26190	-59.06495	-587.11060	683.78717	-43.05491	-503.15274	-802.89917	60.86090	626.02869	766.56342	66.73756	630.60486	-21.48248	528.05054	-1049.61072	
926	9.250	-730.47534	-58.90268	-587.18573	684.74109	-42.93227	-503.23309	-802.19653	60.81464	625.82666	767.42419	66.77489	630.60327	-20.37330	528.34021	-1049.37231	
927	9.260	-729.63690	-58.67311	-587.11383	685.14722	-42.87783	-503.11249	-801.57806	60.91764	626.02661	768.51886	66.69115	630.66058	-19.42619	528.48871	-1049.02124	
928	9.270	-728.93304	-58.56202	-586.95355	686.26593	-42.84065	-502.91293	-800.57178	60.74929	626.20471	769.22089	66.50626	630.62714	-18.61535	528.62653	-1048.65564	
929	9.280	-728.07892	-58.37313	-586.91095	687.04828	-42.69862	-503.03790	-799.51819	59.90572	626.33826	769.82239	66.21602	630.71436	-18.08177	529.18524	-1048.71021	
930	9.290	-727.10791	-58.02096	-586.90607	687.77338	-42.28899	-503.04950	-798.77246	59.81147	626.45123	770.79260	65.96586	630.89221	-16.98198	529.78296	-1048.34180	
931	9.300	-726.30676	-57.94589	-586.78650	688.70526	-41.94333	-502.86731	-797.72021	59.29879	626.61719	771.84528	65.81307	630.91199	-16.21291	530.22540	-1048.06812	
932	9.310	-725.58191	-57.43621	-586.76221	689.69482	-41.73129	-502.85318	-796.83606	59.00642	626.64404	772.45233	65.45097	631.13611	-14.81762	530.89087	-1047.33130	
933	9.320	-724.57880	-57.02280	-586.68140	690.29425	-41.48595	-502.71872	-795.99902	58.75546	626.68646	773.73053	64.78794	631.27325	-14.57584	531.43298	-1047.37817	
934	9.330	-724.03790	-56.51922	-586.70349	691.28955	-41.08895	-502.72208	-795.20270	58.52906	626.77344	774.16608	64.69698	631.55090	-13.52452	532.24823	-1047.03723	
935	9.340	-723.01654	-55.86148	-586.59186	692.46301	-40.72309	-502.51321	-794.24561	57.98834	626.86182	775.34320	64.01440	631.45294	-12.57641	532.81848	-1046.25525	
936	9.350	-722.18170	-55.52814	-586.51654	693.21613	-40.40235	-502.40591	-793.29791	57.31473	627.25787	776.28918	63.92055	631.65417	-11.96779	533.62103	-1045.88354	
937	9.360	-721.02551	-55.25246	-586.55902	694.20667	-39.82855	-502.39661	-792.42450	56.83294	627.35089	777.22015	63.41422	631.81738	-10.86829	534.49609	-1045.54272	
938	9.370	-720.00446	-54.62024	-586.45026	695.20612	-39.41912	-502.32605	-791.47369	56.35040	627.60974	778.18494	62.90451	631.95215	-9.84494	535.40375	-1044.67102	
939	9.380	-719.19653	-54.35332	-586.34656	696.13928	-39.01991	-502.36505	-790.48364	55.99821	627.87689	779.14563	62.25656	632.37292	-8.45327	536.24048	-1043.84509	
940	9.390	-717.92590	-53.77291	-586.13385	696.81842	-38.22966	-502.21606	-789.48181	55.46032	627.91217	779.70111	61.95833	632.33795	-8.00666	537.44708	-1043.57471	
941	9.400	-717.05267	-53.23162	-585.93896	697.89099	-37.90601	-502.04541	-788.47192	54.93056	628.31281	781.15118	61.34105	632.65674	-6.34064	538.33704	-1042.33838	
942	9.410	-716.21533	-52.42683	-585.89514	699.10730	-37.37065	-501.86832	-787.56049	54.20604	628.43195	782.18597	60.84375	632.83563	-5.75531	539.46588	-1042.03113	
943	9.420	-715.28699	-51.66407	-585.83350	699.93439	-36.64553	-501.80045	-786.45844	53.52945	628.53546	783.17523	60.08615	632.91992	-4.86312	540.49170	-1041.41528	
944	9.430	-714.08850	-51.00638	-585.69061	701.10883	-36.20189	-501.83853	-785.51337	52.94058	628.85052	784.13831	59.49654	633.32196	-3.54952	541.85321	-1040.42578	
945	9.440	-713.12604	-50.35893	-585.65125	702.02704	-35.72283	-501.51733	-784.51367	52.13482	629.13550	785.17426	58.72391	633.47882	-3.01220	542.94806	-1040.06677	
946	9.450	-712.14105	-49.85928	-585.49640	703.31610	-34.86085	-501.33868	-783.40570	51.58751	629.29193	786.20459	57.87884	633.94922	-1.88575	544.39142	-1038.95654	
947	9.460	-710.92487	-49.05157	-585.49097	704.02423	-34.31493	-501.33548	-782.40692	50.78388	629.48657	786.93042	57.02437	634.10345	-0.84637	545.63000	-1037.97437	
